<?xml version="1.0" encoding="utf-8"?>
<!-- Generator: Adobe Illustrator 25.2.1, SVG Export Plug-In . SVG Version: 6.00 Build 0)  -->
<svg version="1.1" id="Calque_1" xmlns="http://www.w3.org/2000/svg" xmlns:xlink="http://www.w3.org/1999/xlink" x="0px" y="0px"
	 viewBox="0 0 282.5 282.5" style="enable-background:new 0 0 282.5 282.5;" xml:space="preserve">
<style type="text/css">
	.st0{fill:#286AC7;}
	.st1{fill:#FF6600;}
</style>
<g>
	<path class="st0" d="M135.6,265.6c-25.8,0-46.3-12-59.1-34.6c-3-5.3-3.8-11.4-2.1-17.2c1.6-5.8,5.4-10.7,10.7-13.7
		c3.4-1.9,7.3-3,11.2-3c8.1,0,15.7,4.4,19.7,11.5c5.3,9.3,11.4,12.4,22.7,11.5c7.1-0.5,14.4-8.2,16.8-13.5c0.5-1.2,0.7-5.3,0.8-8.4
		c0.4-8,0.9-20,6.7-33.3c3.6-9.5,9.1-17.3,14.3-24.9c4.2-6,8.5-12.2,9.5-16.3c2.5-11.8,4-23.6-4.9-37.9
		c-10.4-15.5-20.7-21.4-39.3-22.2c-0.7,0-1.4-0.1-2-0.1c-18.1,0-30,12.1-34.3,17.2c-5.3,6.5-8.6,17.2-9.3,20.5
		C94.7,111.5,85.4,119,74.9,119c-1.6,0-3.3-0.2-4.9-0.5c-12.2-2.7-19.9-14.7-17.3-26.9C53,89.3,57.9,68.1,71.1,52
		c8.4-10.1,31.8-33.8,69.1-33.8c1.4,0,2.9,0,4.3,0.1c32.9,1.5,56.7,15,75.1,42.6l0.3,0.4c19.7,31.3,13.9,58.8,11.1,72.1l-0.1,0.4
		c-2.9,12.6-9.8,22.5-16.4,32.1c-4,5.7-7.7,11.2-9.4,15.6l-0.5,1.3c-2.6,5.8-2.8,11.3-3.1,17.6c-0.3,7.2-0.8,16.2-4.9,25.2
		c-8.2,17.8-28.8,37.9-54.7,39.8C139.8,265.6,137.7,265.6,135.6,265.6z M96.2,211.4c-1.5,0-2.9,0.4-4.2,1.1c-2,1.1-3.4,2.9-4,5.1
		c-0.6,2.2-0.3,4.5,0.8,6.5c10.3,18.2,26.1,27.4,46.8,27.4c1.7,0,3.5-0.1,5.3-0.2c20.1-1.5,36.3-17.4,42.9-31.6
		c3-6.5,3.3-13.4,3.6-20c0.3-7.1,0.7-14.5,4.3-22.6l0.3-0.7c2.3-6,6.5-12.1,10.9-18.6c5.9-8.5,12-17.3,14.3-27.2v-0.2
		c2.6-12.2,7.4-35.1-9.2-61.4l-0.2-0.3c-16-24.1-35.2-34.9-63.9-36.2c-1.2-0.1-2.5-0.1-3.6-0.1c-31.2,0-51.1,20-58.2,28.6
		C70.7,74.8,66.5,93.8,66.3,94.6c-1,4.6,1.9,9.1,6.5,10.1c0.6,0.1,1.2,0.2,1.8,0.2c3.9,0,7.4-2.8,8.3-6.7
		c1.2-5.5,5.3-18.1,12.2-26.4c5.8-7,22.2-23.6,47.9-22.3c23.3,1,37.5,9,50.5,28.6l0.1,0.2c11.8,18.8,9.7,34.9,6.8,48.6v0.2
		c-1.6,6.7-6.5,13.7-11.6,21.2c-4.8,6.9-9.8,14.1-12.8,22l-0.1,0.3c-4.8,11-5.2,20.7-5.6,28.5c-0.3,5.4-0.5,10.1-2.1,13.6
		c-3.6,7.9-14.6,20.7-28.6,21.8c-1.5,0.1-2.9,0.2-4.2,0.2c-14.4,0-24.5-6-31.8-18.8C102.1,213,99.3,211.4,96.2,211.4z"/>
	<path class="st1" d="M134,102.3c-8.4,0.1-15.5,3-21.4,8.9s-8.8,13-8.9,21.4s2.8,15.5,8.7,21.4l21.2,21.2l21.5-21.5
		c5.9-5.9,8.8-13,9-21.3c0.1-8.3-2.8-15.4-8.6-21.3C149.5,105.1,142.4,102.2,134,102.3z M146.6,144.5c-7.1,7.1-18.5,7.1-25.6,0
		s-7.1-18.5,0-25.6s18.5-7.1,25.6,0C153.7,126,153.7,137.4,146.6,144.5z"/>
</g>
</svg>
